<svg width="84" height="79" viewBox="0 0 84 79" fill="none" xmlns="http://www.w3.org/2000/svg">
<g filter="url(#filter0_d_32_217)">
<rect x="8" y="8" width="60" height="60" rx="30" fill="#7975E6"/>
<path d="M47 39.5H39.5V47C39.5 47.825 38.825 48.5 38 48.5C37.175 48.5 36.5 47.825 36.5 47V39.5H29C28.175 39.5 27.5 38.825 27.5 38C27.5 37.175 28.175 36.5 29 36.5H36.5V29C36.5 28.175 37.175 27.5 38 27.5C38.825 27.5 39.5 28.175 39.5 29V36.5H47C47.825 36.5 48.5 37.175 48.5 38C48.5 38.825 47.825 39.5 47 39.5Z" fill="white"/>
</g>
<defs>
<filter id="filter0_d_32_217" x="0" y="0" width="84" height="84" filterUnits="userSpaceOnUse" color-interpolation-filters="sRGB">
<feFlood flood-opacity="0" result="BackgroundImageFix"/>
<feColorMatrix in="SourceAlpha" type="matrix" values="0 0 0 0 0 0 0 0 0 0 0 0 0 0 0 0 0 0 127 0" result="hardAlpha"/>
<feOffset dx="4" dy="4"/>
<feGaussianBlur stdDeviation="6"/>
<feComposite in2="hardAlpha" operator="out"/>
<feColorMatrix type="matrix" values="0 0 0 0 0 0 0 0 0 0 0 0 0 0 0 0 0 0 0.1 0"/>
<feBlend mode="normal" in2="BackgroundImageFix" result="effect1_dropShadow_32_217"/>
<feBlend mode="normal" in="SourceGraphic" in2="effect1_dropShadow_32_217" result="shape"/>
</filter>
</defs>
</svg>
