<svg width="9" height="7" viewBox="0 0 9 7" fill="none" xmlns="http://www.w3.org/2000/svg">
<path d="M2.94884 4.89293L7.67449 0.16728C7.78601 0.05576 7.91612 0 8.06481 0C8.2135 0 8.34361 0.05576 8.45513 0.16728C8.56665 0.2788 8.62241 0.411322 8.62241 0.564848C8.62241 0.718373 8.56665 0.85071 8.45513 0.961858L3.33916 6.09177C3.22764 6.20329 3.09753 6.25905 2.94884 6.25905C2.80015 6.25905 2.67004 6.20329 2.55852 6.09177L0.160846 3.69409C0.0493261 3.58257 -0.00420344 3.45024 0.000257353 3.29708C0.00471814 3.14393 0.0628941 3.01141 0.174786 2.89951C0.286677 2.78762 0.4192 2.73186 0.572354 2.73223C0.725508 2.73261 0.857844 2.78837 0.969364 2.89951L2.94884 4.89293Z" fill="white"/>
</svg>
