<svg width="15" height="15" viewBox="0 0 15 15" fill="none" xmlns="http://www.w3.org/2000/svg">
<path d="M3.25 4.00009H2.5C2.10218 4.00009 1.72064 4.15813 1.43934 4.43943C1.15804 4.72074 1 5.10227 1 5.50009V12.2501C1 12.6479 1.15804 13.0294 1.43934 13.3108C1.72064 13.5921 2.10218 13.7501 2.5 13.7501H9.25C9.64782 13.7501 10.0294 13.5921 10.3107 13.3108C10.592 13.0294 10.75 12.6479 10.75 12.2501V11.5001" stroke="#8B8B8B" stroke-width="2" stroke-linecap="round" stroke-linejoin="round"/>
<path d="M10 2.50008L12.25 4.75008M13.2888 3.68883C13.5841 3.39345 13.7501 2.99282 13.7501 2.57508C13.7501 2.15734 13.5841 1.75672 13.2888 1.46133C12.9934 1.16595 12.5927 1 12.175 1C11.7573 1 11.3566 1.16595 11.0613 1.46133L4.75 7.75008V10.0001H7L13.2888 3.68883Z" stroke="#8B8B8B" stroke-width="2" stroke-linecap="round" stroke-linejoin="round"/>
</svg>
